<?xml version="1.0" standalone="no"?><svg xmlns="http://www.w3.org/2000/svg" viewBox="0 0 1440 320"><path fill="#0099ff" fill-opacity="1" d="M0,32L34.3,37.3C68.6,43,137,53,206,96C274.3,139,343,213,411,250.7C480,288,549,288,617,272C685.7,256,754,224,823,186.7C891.4,149,960,107,1029,128C1097.1,149,1166,235,1234,272C1302.9,309,1371,299,1406,293.3L1440,288L1440,320L1405.7,320C1371.4,320,1303,320,1234,320C1165.7,320,1097,320,1029,320C960,320,891,320,823,320C754.3,320,686,320,617,320C548.6,320,480,320,411,320C342.9,320,274,320,206,320C137.1,320,69,320,34,320L0,320Z"></path></svg>